<svg width="223" height="72" viewBox="0 0 223 72" fill="none" xmlns="http://www.w3.org/2000/svg">
<g clip-path="url(#clip0)">
<g opacity="0.9">
<path d="M71.7375 31.9442C71.4082 30.9701 71.9334 29.9135 72.908 29.5845C73.8848 29.258 74.9437 29.7792 75.2715 30.7571C75.6007 31.7337 75.0751 32.7903 74.0994 33.1193C73.1237 33.4484 72.0652 32.9209 71.7375 31.9442ZM34.4387 62.6085C36.9496 63.2021 39.1749 63.8654 41.8139 63.7759C44.5237 63.6744 47.1914 63.2099 49.7948 62.4597C54.926 60.9737 60.2154 59.1837 64.8755 56.5293C68.6917 54.3509 72.6236 51.4466 74.4115 47.2771C75.2255 45.3778 75.6862 43.4008 75.8956 41.3452C76.009 40.2476 76.1736 39.2933 76.4222 38.3707C76.4607 38.3114 76.4987 38.2551 76.5409 38.1984C77.0754 37.5048 77.6495 36.8441 78.3041 36.2599C79.0876 35.5555 79.9909 34.7948 80.9338 34.3173C81.3182 34.121 81.6512 33.9722 81.9528 33.7327C82.2278 33.6894 82.4914 33.6155 82.7217 33.4842C82.7836 33.451 82.7758 33.3656 82.7321 33.3223C82.0909 32.6668 80.9125 32.4997 80.0842 32.1811C79.6998 32.0311 79.3164 31.8625 78.9335 31.6744C78.9454 31.6177 78.9518 31.561 78.948 31.5021C78.9518 30.8899 78.923 30.7466 78.6647 30.1504C78.2762 29.2476 77.888 28.2985 77.2254 27.5535C75.7246 25.878 73.407 24.9528 71.1578 25.0083C65.9408 25.1479 61.1374 28.3839 57.6056 32.0087C53.1235 36.6098 50.2241 42.0742 47.2481 47.6916C45.7379 50.5422 44.1221 53.4928 41.8478 55.8223C39.6094 58.1126 36.8615 59.5695 34.3715 61.5412C34.3028 61.5949 34.2606 61.6699 34.2382 61.7478C33.9553 61.9937 33.9818 62.5004 34.4387 62.6085Z" fill="#FF2D16"/>
<path d="M62.489 26.5924C62.489 26.5924 55.7472 27.4042 48.1361 19.2761C42.3253 13.0756 42.5425 9.52881 44.5902 8.75244C46.2269 8.13647 47.8741 10.4212 49.89 14.5828C52.1352 19.2153 56.2541 24.5853 62.489 26.5924Z" fill="#00B8F1"/>
<path d="M51.833 12.4749C46.7238 1.87854 49.1044 0.308665 50.7203 0.0202775C52.3346 -0.265139 53.342 2.47508 54.0755 7.4444C54.8075 12.413 57.9611 21.7824 65.6394 24.7595C65.6394 24.7595 56.9421 23.071 51.833 12.4749Z" fill="#FFA22B"/>
<path d="M58.7265 28.6278C58.7265 28.6278 52.3442 29.7467 45.5102 24.9493C38.6733 20.1508 40.3589 17.5304 41.8982 17.5252C43.4375 17.5225 43.9761 18.6228 47.4246 21.9961C50.8706 25.3679 53.287 27.4631 58.7265 28.6278Z" fill="#84C746"/>
<path d="M45.4677 27.6128C47.7957 29.633 51.5048 31.5692 55.1209 31.6364C55.1209 31.6364 50.0987 32.9824 44.1165 30.4609C38.1358 27.9445 39.1272 25.8138 40.2295 25.2688C41.3276 24.7319 43.0501 25.5176 45.4677 27.6128Z" fill="#862996"/>
<path d="M19.9822 28.7902C13.0799 22.3898 14.0254 17.582 15.2168 16.9239C16.4071 16.2684 18.4615 17.0321 19.728 20.7934C20.8567 24.1559 23.244 26.6671 23.244 26.6671C34.7799 39.5862 50.5205 37.5421 50.5205 37.5421C35.2737 40.2786 26.8848 35.1903 19.9822 28.7902Z" fill="#FF2D16"/>
<path d="M48.5139 39.9693C34.9277 44.5861 26.8927 41.8171 17.1066 36.3856C7.32015 30.954 0.465319 18.7205 4.33264 17.7651C8.25779 16.7884 7.60869 21.7976 20.4946 33.3652C32.6942 44.3111 48.5139 39.9693 48.5139 39.9693Z" fill="#D62313"/>
<path d="M46.8163 42.2957C38.5498 47.2154 30.4964 47.4442 17.8699 43.2262C5.24217 39.0052 -2.7414 28.0104 0.873239 27.0523C4.48784 26.0928 4.73794 32.9368 19.5555 40.6042C34.373 48.2798 46.8163 42.2957 46.8163 42.2957Z" fill="#91120A"/>
<path d="M9.46344 44.9434C11.1319 44.2286 14.0037 45.4698 19.9594 47.653C32.1619 52.1359 46.0053 45.475 46.0053 45.475C23.8125 58.8453 10.725 49.0969 9.52538 48.1716C8.59971 47.4572 7.59376 45.7422 9.46344 44.9434Z" fill="#2B2E34"/>
<path d="M29.1145 60.8678C24.4059 62.513 22.976 59.8164 23.4168 59.086C23.858 58.3592 25.1143 58.595 25.9571 59.6832C26.7985 60.773 29.1145 60.8678 29.1145 60.8678ZM35.813 58.9121C35.813 58.9121 29.9204 60.9812 27.4028 58.8345C24.8826 56.6878 22.5743 56.439 21.5789 58.3133C20.5845 60.1862 24.0397 66.6362 35.813 58.9121Z" fill="#D4233E"/>
<path d="M19.2095 67.4689C18.9777 66.3926 20.0706 65.8293 21.6308 66.0781C23.1873 66.3228 25.1495 65.8569 25.1495 65.8569C22.1354 68.1509 19.4439 68.543 19.2095 67.4689ZM17.7098 68.1655C18.588 70.5199 24.5609 69.7077 32.8248 62.4824C32.8248 62.4824 27.5749 64.675 23.2138 64.4328C18.8538 64.1892 16.8315 65.808 17.7098 68.1655Z" fill="#D4233E"/>
<path d="M28.046 70.4582C27.8527 69.8845 28.2356 69.307 29.7328 68.9962C31.2329 68.6817 32.4811 68.0064 32.4811 68.0064C30.3162 70.7232 28.2397 71.0362 28.046 70.4582ZM25.8748 71.0653C26.4186 73.4432 34.9512 71.3428 36.4447 64.0858C36.4447 64.0858 34.9617 66.0403 31.3486 67.2525C27.7392 68.4683 25.3283 68.6791 25.8748 71.0653Z" fill="#D4233E"/>
</g>
<path d="M103.543 47.1563C103.543 47.5898 103.908 47.9367 104.341 47.9367H105.92C106.371 47.9367 106.735 47.5727 106.735 47.1388V36.5779C106.735 36.1269 106.371 35.777 105.92 35.777H104.341C103.908 35.777 103.543 36.1269 103.543 36.5779V40.4083H97.7141V36.5779C97.7141 36.1269 97.3495 35.777 96.916 35.777H95.337C94.8859 35.777 94.5217 36.1269 94.5217 36.5779V47.1388C94.5217 47.5727 94.8859 47.9367 95.337 47.9367H96.916C97.3495 47.9367 97.7141 47.5898 97.7141 47.1563V42.8022H103.543V47.1563ZM115.289 37.8239C117.891 37.8239 118.915 39.2635 118.915 41.8655C118.915 44.4674 117.891 45.9074 115.289 45.9074C112.686 45.9074 111.663 44.4674 111.663 41.8655C111.663 39.2635 112.686 37.8239 115.289 37.8239ZM108.47 41.8655C108.47 46.3755 110.951 48.1967 115.289 48.1967C119.626 48.1967 122.107 46.3755 122.107 41.8655C122.107 37.3557 119.626 35.5341 115.289 35.5341C110.951 35.5341 108.47 37.3557 108.47 41.8655ZM123.842 47.1388C123.842 47.5727 124.189 47.9367 124.64 47.9367H131.926C134.303 47.9367 136.42 46.7053 136.42 44.294C136.42 43.1491 135.934 42.0912 134.789 41.4838C135.639 40.79 135.934 40.1106 135.934 39.2377C135.934 36.7137 133.696 35.777 131.528 35.777H124.64C124.189 35.777 123.842 36.1415 123.842 36.5749V47.1388ZM131.562 38.0668C132.273 38.0668 132.742 38.5032 132.742 39.2896C132.742 40.076 132.273 40.5124 131.562 40.5124H127.034V38.0668H131.562ZM131.875 42.7328C132.777 42.7328 133.228 43.3226 133.228 44.1899C133.228 45.0572 132.777 45.647 131.875 45.647H127.034V42.7328H131.875ZM144.834 42.3165C145.823 42.3165 146.257 42.9238 146.257 43.9299C146.257 44.936 145.823 45.5429 144.834 45.5429H141.347V42.3165H144.834ZM141.347 39.9226V36.5809C141.347 36.1269 140.983 35.777 140.549 35.777H138.953C138.502 35.777 138.155 36.1269 138.155 36.5809V47.1216C138.155 47.5551 138.485 47.9367 138.918 47.9367H144.834C147.368 47.9367 149.449 46.549 149.449 43.9299C149.449 41.3104 147.368 39.9226 144.834 39.9226H141.347ZM151.15 47.1563C151.15 47.5898 151.514 47.9367 151.948 47.9367H153.561C154.012 47.9367 154.376 47.5727 154.376 47.1388V36.5809C154.376 36.1269 154.012 35.777 153.561 35.777H151.948C151.514 35.777 151.15 36.1269 151.15 36.5809V47.1563ZM162.982 32.9322C162.392 32.9322 162.045 32.7069 161.889 32.3252C161.784 32.0648 161.576 31.8914 161.299 31.8914H160.605C160.31 31.8914 160.136 32.013 160.136 32.3252C160.136 33.8864 161.282 34.8403 162.982 34.8403C164.682 34.8403 165.827 33.8864 165.827 32.3252C165.827 32.013 165.653 31.8914 165.359 31.8914H164.665C164.387 31.8914 164.179 32.0648 164.075 32.3252C163.919 32.7069 163.572 32.9322 162.982 32.9322ZM168.36 47.9367C168.794 47.9367 169.158 47.5727 169.158 47.1388V36.5925C169.158 36.1586 168.811 35.7945 168.377 35.7945H165.879C165.463 35.7945 164.959 36.1762 164.716 36.5925L159.894 45.0572V36.5749C159.894 36.1415 159.529 35.7945 159.096 35.7945H157.603C157.152 35.7945 156.805 36.1415 156.805 36.5925V47.1388C156.805 47.5727 157.152 47.9367 157.603 47.9367H160.414C160.865 47.9367 161.403 47.5727 161.646 47.1388L166.07 39.281V47.1388C166.07 47.5727 166.434 47.9367 166.868 47.9367H168.36ZM186.021 47.9367C186.455 47.9367 186.906 47.5868 187.062 47.1705L190.046 38.8359V47.1186C190.046 47.5697 190.393 47.9367 190.845 47.9367H192.371C192.822 47.9367 193.169 47.5697 193.169 47.1186V36.5951C193.169 36.1441 192.822 35.777 192.389 35.777H188.936C188.485 35.777 188.051 36.1441 187.913 36.5779L185.414 43.8198L182.916 36.5779C182.777 36.1441 182.344 35.777 181.893 35.777H178.44C178.006 35.777 177.659 36.1441 177.659 36.5951V47.1186C177.659 47.5697 178.006 47.9367 178.457 47.9367H179.984C180.435 47.9367 180.782 47.5697 180.782 47.1186V38.8359L183.766 47.1705C183.922 47.5868 184.373 47.9367 184.807 47.9367H186.021ZM207.153 47.9367C207.587 47.9367 207.951 47.5697 207.951 47.1358V36.5779C207.951 36.1441 207.604 35.777 207.17 35.777H204.672C204.256 35.777 203.752 36.1616 203.509 36.5779L198.687 45.0516V36.5604C198.687 36.1269 198.322 35.777 197.888 35.777H196.396C195.945 35.777 195.598 36.1269 195.598 36.5779V47.1358C195.598 47.5697 195.945 47.9367 196.396 47.9367H199.207C199.658 47.9367 200.196 47.5697 200.439 47.1358L204.863 39.2694V47.1358C204.863 47.5697 205.227 47.9367 205.661 47.9367H207.153ZM216.66 38.1708C218.326 38.1708 219.558 38.5177 219.558 40.5038C219.558 42.4899 218.326 42.8369 216.66 42.8369H213.572V38.1708H216.66ZM211.16 35.777C210.727 35.777 210.38 36.1239 210.38 36.5749V47.1388C210.38 47.5727 210.744 47.9367 211.178 47.9367H212.774C213.225 47.9367 213.572 47.5727 213.572 47.1388V45.2307H217.632C220.859 45.2307 222.75 43.7736 222.75 40.5038C222.75 37.2341 220.859 35.777 217.632 35.777H211.16Z" fill="#404040"/>
<path opacity="0.9" d="M93.4421 57.9678C93.4421 59.9235 94.4384 60.8169 96.3736 60.8169H97.3373C98.4383 60.8169 99.6126 60.2291 99.6126 59.0866C99.6126 58.7244 99.313 58.6519 99.2078 58.6519H98.738C98.5113 58.6519 98.3249 58.7564 98.1712 59.0866C97.9931 59.4647 97.6852 59.7063 97.1996 59.7063H96.414C95.2479 59.7063 94.9322 59.2795 94.9322 57.9678C94.9322 56.6561 95.2479 56.2297 96.414 56.2297H97.1185C97.6044 56.2297 97.9119 56.471 98.0904 56.8495C98.2441 57.1792 98.4304 57.2837 98.6572 57.2837H99.1266C99.2321 57.2837 99.5314 57.2116 99.5314 56.8495C99.5314 55.7066 98.3575 55.1191 97.2561 55.1191H96.3736C94.4384 55.1191 93.4421 56.0126 93.4421 57.9678ZM100.382 60.4143C100.382 60.6154 100.544 60.7845 100.754 60.7845H104.155C105.265 60.7845 106.253 60.2131 106.253 59.0947C106.253 58.5634 106.026 58.0727 105.491 57.7909C105.888 57.4689 106.026 57.1536 106.026 56.7487C106.026 55.5779 104.981 55.1433 103.969 55.1433H100.754C100.544 55.1433 100.382 55.3121 100.382 55.5136V60.4143ZM103.985 56.2055C104.317 56.2055 104.536 56.4081 104.536 56.7729C104.536 57.1376 104.317 57.3402 103.985 57.3402H101.872V56.2055H103.985ZM104.131 58.3705C104.552 58.3705 104.763 58.6437 104.763 59.0464C104.763 59.4487 104.552 59.7223 104.131 59.7223H101.872V58.3705H104.131ZM111.994 55.1433H107.435C107.232 55.1433 107.062 55.3043 107.062 55.5054V57.9559V60.4064C107.062 60.6154 107.224 60.7845 107.435 60.7845H111.977C112.188 60.7845 112.35 60.6154 112.35 60.4143V60.0361C112.35 59.835 112.188 59.674 111.985 59.674H108.552V58.5151H111.516C111.718 58.5151 111.888 58.3463 111.888 58.1448V57.7749C111.888 57.5737 111.718 57.4045 111.516 57.4045H108.552V56.2539H111.994C112.196 56.2539 112.366 56.0929 112.366 55.8836V55.5136C112.366 55.3043 112.196 55.1433 111.994 55.1433ZM112.982 55.1433C112.771 55.1433 112.609 55.3043 112.609 55.5136V55.8836C112.609 56.0929 112.771 56.2539 112.982 56.2539H114.747V60.4209C114.747 60.6221 114.917 60.7845 115.119 60.7845H115.864C116.067 60.7845 116.237 60.6221 116.237 60.4209V56.2539H118.002C118.213 56.2539 118.375 56.0929 118.375 55.8836V55.5136C118.375 55.3043 118.213 55.1433 118.002 55.1433H112.982ZM125.444 60.3741C125.687 60.5994 125.889 60.7845 126.253 60.7845H127.152C127.355 60.7845 127.46 60.5592 127.29 60.4143L126.278 59.513L126.755 58.8371C126.837 58.7245 126.812 58.5876 126.691 58.4991L126.262 58.2095C126.164 58.1448 126.019 58.1612 125.938 58.2738L125.549 58.8289L124.18 57.6459C123.792 57.3161 123.5 57.0023 123.5 56.6C123.5 56.2379 123.776 56.0204 124.237 56.0204C124.715 56.0204 125.015 56.1732 125.152 56.3907C125.266 56.5676 125.403 56.6803 125.606 56.6803H126.132C126.27 56.6803 126.375 56.5758 126.375 56.439C126.375 55.5214 125.525 55.0708 124.221 55.0708C122.836 55.0708 122.124 55.8111 122.124 56.6721C122.124 57.0424 122.237 57.3243 122.48 57.5897C121.865 57.8715 121.532 58.4106 121.532 59.1185C121.532 60.1889 122.302 60.8649 123.735 60.8649C124.496 60.8649 124.99 60.6637 125.444 60.3741ZM123.833 59.9153C123.087 59.9153 122.861 59.5613 122.861 59.1185C122.861 58.8129 122.982 58.5552 123.258 58.4184L124.666 59.6822C124.424 59.8432 124.164 59.9153 123.833 59.9153ZM130.974 59.674H130.667C130.464 59.674 130.294 59.835 130.294 60.0361V60.4143C130.294 60.6154 130.464 60.7845 130.667 60.7845H136.416C136.618 60.7845 136.788 60.6236 136.788 60.4224V55.5054C136.788 55.3043 136.618 55.1433 136.416 55.1433H134.278C133.128 55.1433 132.019 55.4329 131.711 56.6885L130.974 59.674ZM133.16 57.0276C133.274 56.5517 133.614 56.2539 134.116 56.2539H135.298V59.674H132.496L133.16 57.0276ZM142.853 55.1433H138.294C138.092 55.1433 137.922 55.3043 137.922 55.5054V60.4064C137.922 60.6154 138.084 60.7845 138.294 60.7845H142.837C143.047 60.7845 143.209 60.6154 143.209 60.4143V60.0361C143.209 59.835 143.047 59.674 142.845 59.674H139.412V58.5151H142.375C142.578 58.5151 142.748 58.3463 142.748 58.1448V57.7749C142.748 57.5737 142.578 57.4045 142.375 57.4045H139.412V56.2539H142.853C143.055 56.2539 143.226 56.0929 143.226 55.8836V55.5136C143.226 55.3043 143.055 55.1433 142.853 55.1433ZM145.072 60.7845C145.274 60.7845 145.444 60.6236 145.444 60.4224V58.5151H146.295C146.805 58.5151 147.104 58.8453 147.404 59.32L148.1 60.4143C148.23 60.6236 148.505 60.7845 148.708 60.7845H149.615C149.825 60.7845 149.882 60.6236 149.752 60.4143L148.764 58.8531C148.538 58.5069 148.133 58.0162 147.744 57.9359C148.295 57.8068 148.562 57.4287 148.764 57.0666L149.623 55.5215C149.744 55.3043 149.704 55.1433 149.501 55.1433H148.586C148.384 55.1433 148.165 55.2642 148.019 55.5215L147.404 56.6078C147.088 57.1711 146.756 57.4045 146.295 57.4045H145.444V55.5215C145.444 55.3121 145.274 55.1433 145.072 55.1433H144.327C144.125 55.1433 143.954 55.3121 143.954 55.5215V60.4064C143.954 60.6154 144.125 60.7845 144.327 60.7845H145.072ZM153.008 56.0929C154.223 56.0929 154.701 56.761 154.701 57.9678C154.701 59.1751 154.223 59.8432 153.008 59.8432C151.794 59.8432 151.316 59.1751 151.316 57.9678C151.316 56.761 151.794 56.0929 153.008 56.0929ZM149.826 57.9678C149.826 60.0603 150.984 60.9054 153.008 60.9054C155.033 60.9054 156.191 60.0603 156.191 57.9678C156.191 55.8758 155.033 55.0306 153.008 55.0306C150.984 55.0306 149.826 55.8758 149.826 57.9678ZM159.932 56.2539C160.709 56.2539 161.284 56.4148 161.284 57.3361C161.284 58.2575 160.709 58.4184 159.932 58.4184H158.491V56.2539H159.932ZM157.365 55.1433C157.163 55.1433 157.001 55.3043 157.001 55.5136V60.4143C157.001 60.6154 157.171 60.7845 157.373 60.7845H158.118C158.329 60.7845 158.491 60.6154 158.491 60.4143V59.529H160.385C161.892 59.529 162.774 58.8531 162.774 57.3361C162.774 55.8192 161.892 55.1433 160.385 55.1433H157.365Z" fill="#FF2D16"/>
</g>
<defs>
<clipPath id="clip0">
<rect width="222.75" height="72" fill="white"/>
</clipPath>
</defs>
</svg>
