<svg width="20" height="20" viewBox="0 0 20 20" fill="none" xmlns="http://www.w3.org/2000/svg">
<path d="M18.25 7.40833L17.375 3.76667C17.1917 3.01667 16.5417 2.5 15.7833 2.5H4.20834C3.45834 2.5 2.80001 3.025 2.62501 3.76667L1.75001 7.40833C1.55001 8.25833 1.73334 9.125 2.26667 9.80833C2.33334 9.9 2.42501 9.96667 2.50001 10.05V15.8333C2.50001 16.75 3.25001 17.5 4.16667 17.5H15.8333C16.75 17.5 17.5 16.75 17.5 15.8333V10.05C17.575 9.975 17.6667 9.9 17.7333 9.81667C18.2667 9.13333 18.4583 8.25833 18.25 7.40833ZM15.7583 4.15833L16.6333 7.8C16.7167 8.15 16.6417 8.5 16.425 8.775C16.3083 8.925 16.0583 9.16667 15.6417 9.16667C15.1333 9.16667 14.6917 8.75833 14.6333 8.21667L14.15 4.16667L15.7583 4.15833ZM10.8333 4.16667H12.4667L12.9167 7.93333C12.9583 8.25833 12.8583 8.58333 12.6417 8.825C12.4583 9.04167 12.1917 9.16667 11.85 9.16667C11.2917 9.16667 10.8333 8.675 10.8333 8.075V4.16667ZM7.07501 7.93333L7.53334 4.16667H9.16667V8.075C9.16667 8.675 8.70834 9.16667 8.09167 9.16667C7.80834 9.16667 7.55001 9.04167 7.35001 8.825C7.14167 8.58333 7.04167 8.25833 7.07501 7.93333ZM3.36667 7.8L4.20834 4.16667H5.85001L5.36667 8.21667C5.30001 8.75833 4.86667 9.16667 4.35834 9.16667C3.95001 9.16667 3.69167 8.925 3.58334 8.775C3.35834 8.50833 3.28334 8.15 3.36667 7.8ZM4.16667 15.8333V10.8083C4.23334 10.8167 4.29167 10.8333 4.35834 10.8333C5.08334 10.8333 5.74167 10.5333 6.22501 10.0417C6.72501 10.5417 7.39167 10.8333 8.15001 10.8333C8.87501 10.8333 9.52501 10.5333 10.0083 10.0583C10.5 10.5333 11.1667 10.8333 11.9167 10.8333C12.6167 10.8333 13.2833 10.5417 13.7833 10.0417C14.2667 10.5333 14.925 10.8333 15.65 10.8333C15.7167 10.8333 15.775 10.8167 15.8417 10.8083V15.8333H4.16667Z" fill="#404040"/>
</svg>
