<svg width="16" height="21" viewBox="0 0 16 21" fill="none" xmlns="http://www.w3.org/2000/svg">
<mask id="mask0" mask-type="alpha" maskUnits="userSpaceOnUse" x="1" y="3" width="14" height="14">
<path fill-rule="evenodd" clip-rule="evenodd" d="M8.00016 3.33521C4.32016 3.33521 1.3335 6.32187 1.3335 10.0019C1.3335 13.6819 4.32016 16.6685 8.00016 16.6685C11.6802 16.6685 14.6668 13.6819 14.6668 10.0019C14.6668 6.32187 11.6802 3.33521 8.00016 3.33521ZM8.00016 10.6685C7.6335 10.6685 7.3335 10.3685 7.3335 10.0019V7.33521C7.3335 6.96854 7.6335 6.66854 8.00016 6.66854C8.36683 6.66854 8.66683 6.96854 8.66683 7.33521V10.0019C8.66683 10.3685 8.36683 10.6685 8.00016 10.6685ZM7.3335 12.0019V13.3352H8.66683V12.0019H7.3335Z" fill="black"/>
</mask>
<g mask="url(#mask0)">
<rect y="2.00195" width="16" height="16" fill="#287D3C"/>
</g>
</svg>
