<svg width="20" height="20" viewBox="0 0 20 20" fill="none" xmlns="http://www.w3.org/2000/svg">
<path d="M16.6666 6.66658H14.1666V3.33325H2.49992C1.58325 3.33325 0.833252 4.08325 0.833252 4.99992V14.1666H2.49992C2.49992 15.5499 3.61659 16.6666 4.99992 16.6666C6.38325 16.6666 7.49992 15.5499 7.49992 14.1666H12.4999C12.4999 15.5499 13.6166 16.6666 14.9999 16.6666C16.3833 16.6666 17.4999 15.5499 17.4999 14.1666H19.1666V9.99992L16.6666 6.66658ZM16.2499 7.91658L17.8832 9.99992H14.1666V7.91658H16.2499ZM4.99992 14.9999C4.54158 14.9999 4.16658 14.6249 4.16658 14.1666C4.16658 13.7083 4.54158 13.3333 4.99992 13.3333C5.45825 13.3333 5.83325 13.7083 5.83325 14.1666C5.83325 14.6249 5.45825 14.9999 4.99992 14.9999ZM6.84992 12.4999C6.39158 11.9916 5.74158 11.6666 4.99992 11.6666C4.25825 11.6666 3.60825 11.9916 3.14992 12.4999H2.49992V4.99992H12.4999V12.4999H6.84992ZM14.9999 14.9999C14.5416 14.9999 14.1666 14.6249 14.1666 14.1666C14.1666 13.7083 14.5416 13.3333 14.9999 13.3333C15.4583 13.3333 15.8333 13.7083 15.8333 14.1666C15.8333 14.6249 15.4583 14.9999 14.9999 14.9999Z" fill="#404040"/>
</svg>
