<svg width="209" height="22" viewBox="0 0 209 22" fill="none" xmlns="http://www.w3.org/2000/svg">
<g clip-path="url(#clip0)">
<g clip-path="url(#clip1)">
<path d="M4.24388 21.7626V20.581C4.24388 20.1281 3.96363 19.8327 3.4832 19.8327C3.24299 19.8327 2.98276 19.9115 2.8026 20.1675C2.66247 19.9509 2.46229 19.8327 2.16203 19.8327C1.96185 19.8327 1.76167 19.8918 1.60153 20.1084V19.8721H1.18115V21.7626H1.60153V20.7189C1.60153 20.3841 1.78169 20.2266 2.06194 20.2266C2.34219 20.2266 2.48231 20.4038 2.48231 20.7189V21.7626H2.90269V20.7189C2.90269 20.3841 3.10286 20.2266 3.3631 20.2266C3.64335 20.2266 3.78347 20.4038 3.78347 20.7189V21.7626H4.24388ZM10.4694 19.8721H9.78882V19.301H9.36845V19.8721H8.98811V20.2462H9.36845V21.1127C9.36845 21.5459 9.54861 21.8019 10.029 21.8019C10.2092 21.8019 10.4094 21.7429 10.5495 21.6641L10.4294 21.3096C10.3093 21.3884 10.1692 21.4081 10.0691 21.4081C9.86889 21.4081 9.78882 21.2899 9.78882 21.093V20.2462H10.4694V19.8721ZM14.0326 19.8327C13.7924 19.8327 13.6322 19.9509 13.5322 20.1084V19.8721H13.1118V21.7626H13.5322V20.6992C13.5322 20.3841 13.6723 20.2069 13.9325 20.2069C14.0126 20.2069 14.1127 20.2266 14.1927 20.2462L14.3129 19.8524C14.2328 19.8327 14.1127 19.8327 14.0326 19.8327ZM8.64781 20.0296C8.44763 19.8918 8.16738 19.8327 7.86711 19.8327C7.38668 19.8327 7.0664 20.069 7.0664 20.4432C7.0664 20.7582 7.30661 20.9355 7.72698 20.9946L7.92716 21.0142C8.14736 21.0536 8.26747 21.1127 8.26747 21.2112C8.26747 21.349 8.10732 21.4475 7.82707 21.4475C7.54682 21.4475 7.32663 21.349 7.1865 21.2506L6.98633 21.5656C7.20652 21.7232 7.50679 21.8019 7.80706 21.8019C8.36756 21.8019 8.68784 21.5459 8.68784 21.1915C8.68784 20.8567 8.42761 20.6795 8.02725 20.6204L7.82707 20.6007C7.64691 20.581 7.50679 20.5416 7.50679 20.4235C7.50679 20.2856 7.64691 20.2069 7.86711 20.2069C8.10732 20.2069 8.34754 20.3053 8.46765 20.3644L8.64781 20.0296ZM19.8178 19.8327C19.5775 19.8327 19.4174 19.9509 19.3173 20.1084V19.8721H18.8969V21.7626H19.3173V20.6992C19.3173 20.3841 19.4574 20.2069 19.7177 20.2069C19.7977 20.2069 19.8978 20.2266 19.9779 20.2462L20.098 19.8524C20.0179 19.8327 19.8978 19.8327 19.8178 19.8327ZM14.453 20.8173C14.453 21.3884 14.8533 21.8019 15.4739 21.8019C15.7541 21.8019 15.9543 21.7429 16.1545 21.5853L15.9543 21.2506C15.7942 21.3687 15.634 21.4278 15.4539 21.4278C15.1136 21.4278 14.8734 21.1915 14.8734 20.8173C14.8734 20.4629 15.1136 20.2266 15.4539 20.2069C15.634 20.2069 15.7942 20.2659 15.9543 20.3841L16.1545 20.0493C15.9543 19.8918 15.7541 19.8327 15.4739 19.8327C14.8533 19.8327 14.453 20.2462 14.453 20.8173ZM18.3364 20.8173V19.8721H17.9161V20.1084C17.7759 19.9312 17.5758 19.8327 17.3155 19.8327C16.775 19.8327 16.3547 20.2462 16.3547 20.8173C16.3547 21.3884 16.775 21.8019 17.3155 21.8019C17.5958 21.8019 17.796 21.7035 17.9161 21.5263V21.7626H18.3364V20.8173ZM16.7951 20.8173C16.7951 20.4826 17.0153 20.2069 17.3756 20.2069C17.7159 20.2069 17.9561 20.4629 17.9561 20.8173C17.9561 21.1521 17.7159 21.4278 17.3756 21.4278C17.0153 21.4081 16.7951 21.1521 16.7951 20.8173ZM11.7706 19.8327C11.2101 19.8327 10.8097 20.2266 10.8097 20.8173C10.8097 21.4081 11.2101 21.8019 11.7906 21.8019C12.0709 21.8019 12.3511 21.7232 12.5713 21.5459L12.3711 21.2506C12.211 21.3687 12.0108 21.4475 11.8106 21.4475C11.5504 21.4475 11.2902 21.3293 11.2301 20.9946H12.6514V20.837C12.6714 20.2266 12.3111 19.8327 11.7706 19.8327ZM11.7706 20.1872C12.0308 20.1872 12.211 20.3447 12.251 20.6401H11.2501C11.2902 20.3841 11.4703 20.1872 11.7706 20.1872ZM22.1999 20.8173V19.1238H21.7795V20.1084C21.6394 19.9312 21.4392 19.8327 21.179 19.8327C20.6385 19.8327 20.2181 20.2462 20.2181 20.8173C20.2181 21.3884 20.6385 21.8019 21.179 21.8019C21.4592 21.8019 21.6594 21.7035 21.7795 21.5263V21.7626H22.1999V20.8173ZM20.6585 20.8173C20.6585 20.4826 20.8787 20.2069 21.239 20.2069C21.5793 20.2069 21.8195 20.4629 21.8195 20.8173C21.8195 21.1521 21.5793 21.4278 21.239 21.4278C20.8787 21.4081 20.6585 21.1521 20.6585 20.8173ZM6.60599 20.8173V19.8721H6.18561V20.1084C6.04549 19.9312 5.84531 19.8327 5.58508 19.8327C5.0446 19.8327 4.62422 20.2462 4.62422 20.8173C4.62422 21.3884 5.0446 21.8019 5.58508 21.8019C5.86533 21.8019 6.06551 21.7035 6.18561 21.5263V21.7626H6.60599V20.8173ZM5.0446 20.8173C5.0446 20.4826 5.26479 20.2069 5.62511 20.2069C5.96542 20.2069 6.20563 20.4629 6.20563 20.8173C6.20563 21.1521 5.96542 21.4278 5.62511 21.4278C5.26479 21.4081 5.0446 21.1521 5.0446 20.8173Z" fill="black"/>
<path d="M14.8132 5.51636H8.50757V16.6623H14.8132V5.51636Z" fill="#FF5F00"/>
<path d="M8.90794 11.0893C8.90794 8.82464 9.9889 6.81601 11.6504 5.51631C10.4293 4.57108 8.88792 4 7.20642 4C3.22287 4 0 7.17048 0 11.0893C0 15.008 3.22287 18.1785 7.20642 18.1785C8.88792 18.1785 10.4293 17.6074 11.6504 16.6622C9.9889 15.3822 8.90794 13.3539 8.90794 11.0893Z" fill="#EB001B"/>
<path d="M23.3208 11.0893C23.3208 15.008 20.0979 18.1785 16.1144 18.1785C14.4329 18.1785 12.8915 17.6074 11.6704 16.6622C13.3519 15.3625 14.4129 13.3539 14.4129 11.0893C14.4129 8.82464 13.3319 6.81601 11.6704 5.51631C12.8915 4.57108 14.4329 4 16.1144 4C20.0979 4 23.3208 7.19017 23.3208 11.0893Z" fill="#F79E1B"/>
</g>
<g clip-path="url(#clip2)">
<path d="M67.1007 7H59.5964C59.8378 8.26843 60.5096 9.42153 61.5043 10.275C62.499 11.1285 63.7592 11.633 65.0835 11.708H71.0546C71.1213 11.4518 71.1485 11.1873 71.1353 10.9233C71.1353 9.88281 70.7102 8.88489 69.9536 8.14912C69.197 7.41335 68.1708 7 67.1007 7Z" fill="url(#paint0_linear)"/>
<path d="M60.2419 12.1003V17.9854H63.8731V14.8467H67.1007C67.9496 14.8352 68.7732 14.5635 69.4541 14.0704C70.135 13.5773 70.6386 12.8879 70.8932 12.1003H60.2419Z" fill="#4DB45F"/>
<path d="M47.3313 7V17.9854H50.559C50.8143 17.9712 51.0611 17.891 51.2739 17.7531C51.4866 17.6151 51.6577 17.4244 51.7693 17.2007L54.5935 11.708H54.997V17.9854H58.6281V7H55.4004C55.1511 7.03412 54.9128 7.12236 54.7033 7.25819C54.4938 7.39402 54.3184 7.57396 54.1901 7.78467L51.3659 13.2774H50.9624V7H47.3313Z" fill="#4DB45F"/>
<path d="M32 17.9854V7H35.6311C35.6311 7 36.6801 7 37.2449 8.56934C38.6974 12.7281 38.8588 13.2774 38.8588 13.2774C38.8588 13.2774 39.1815 12.2573 40.4726 8.56934C41.0374 7 42.0864 7 42.0864 7H45.7176V17.9854H42.0864V12.1004H41.683L39.6657 17.9854H38.0519L36.0346 12.1004H35.6311V17.9854H32Z" fill="#4DB45F"/>
</g>
<g clip-path="url(#clip3)">
<path d="M96.3612 19.0428H93.3059L95.2146 7.21289H98.2768L96.3612 19.0428Z" fill="#00579F"/>
<path d="M107.463 7.50815C106.587 7.17187 105.656 7.0019 104.717 7.00695C101.696 7.00695 99.5677 8.62042 99.5539 10.9205C99.5539 12.6163 101.078 13.5638 102.232 14.1268C103.385 14.6898 103.818 15.0812 103.818 15.603C103.804 16.3926 102.856 16.7702 101.971 16.7702C100.977 16.7971 99.9915 16.5802 99.1008 16.1385L98.6957 15.9463L98.27 18.6034C99.3643 19.0285 100.529 19.2428 101.703 19.235C104.909 19.235 107.003 17.649 107.024 15.1979C107.024 13.8247 106.221 12.8223 104.456 11.9778C103.385 11.4354 102.733 11.0715 102.733 10.5154C102.733 9.95926 103.289 9.49925 104.497 9.49925C105.278 9.46118 106.057 9.59964 106.777 9.90434L107.051 10.0279L107.463 7.50815Z" fill="#00579F"/>
<path d="M111.521 14.8545L112.743 11.5451C112.743 11.5451 112.997 10.8585 113.148 10.4123L113.361 11.4284C113.361 11.4284 113.938 14.2571 114.048 14.8613L111.521 14.8545ZM115.297 7.21276H112.956C112.618 7.17198 112.276 7.24679 111.985 7.42503C111.695 7.60327 111.473 7.87447 111.356 8.19458L106.777 19.0495H109.983L110.629 17.2781H114.556C114.645 17.6901 114.92 19.0495 114.92 19.0495H117.762L115.297 7.21276Z" fill="#00579F"/>
<path d="M90.7519 7.21289L87.7515 15.2803L87.422 13.6462C86.6778 11.5274 85.1729 9.76075 83.1995 8.68905L85.9458 19.0359H89.1796L93.9857 7.21976H90.7519V7.21289Z" fill="#00579F"/>
<path d="M84.9709 7.21375H80.0481L80 7.45405C83.838 8.43587 86.3784 10.8046 87.4289 13.6333L86.3578 8.2093C86.2932 7.90257 86.1169 7.63081 85.8631 7.44682C85.6093 7.26284 85.2962 7.17976 84.9846 7.21375H84.9709Z" fill="#FAA61A"/>
</g>
<g clip-path="url(#clip4)">
<path d="M133.581 6.93387C133.159 7.44053 132.484 7.84015 131.809 7.78306C131.725 7.098 132.055 6.37012 132.442 5.92055C132.864 5.39962 133.602 5.02854 134.2 5C134.27 5.71361 133.996 6.41294 133.581 6.93387ZM134.193 7.91865C133.215 7.86156 132.379 8.4824 131.915 8.4824C131.444 8.4824 130.733 7.94719 129.96 7.96147C128.954 7.97574 128.019 8.55376 127.506 9.47431C126.451 11.3154 127.232 14.0414 128.251 15.54C128.751 16.2821 129.348 17.0956 130.136 17.0671C130.881 17.0385 131.176 16.5747 132.076 16.5747C132.983 16.5747 133.244 17.0671 134.031 17.0528C134.847 17.0385 135.36 16.3107 135.859 15.5685C136.429 14.7265 136.661 13.9058 136.675 13.863C136.661 13.8487 135.1 13.2422 135.086 11.4153C135.072 9.8882 136.316 9.16032 136.372 9.11751C135.669 8.06137 134.572 7.94719 134.193 7.91865ZM139.839 5.84919V16.9743H141.54V13.1708H143.896C146.047 13.1708 147.559 11.6722 147.559 9.50285C147.559 7.33349 146.076 5.84919 143.952 5.84919H139.839ZM141.54 7.30495H143.502C144.979 7.30495 145.822 8.10419 145.822 9.50999C145.822 10.9158 144.979 11.7222 143.495 11.7222H141.54V7.30495ZM150.667 17.0599C151.736 17.0599 152.727 16.5105 153.177 15.6399H153.212V16.9743H154.787V11.4367C154.787 9.83111 153.522 8.79638 151.574 8.79638C149.767 8.79638 148.431 9.84539 148.382 11.2869H149.915C150.041 10.6018 150.667 10.1522 151.525 10.1522C152.565 10.1522 153.149 10.6446 153.149 11.5509V12.1646L151.026 12.2931C149.05 12.4144 147.981 13.235 147.981 14.6622C147.981 16.1037 149.085 17.0599 150.667 17.0599ZM151.124 15.7398C150.217 15.7398 149.64 15.2973 149.64 14.6194C149.64 13.9201 150.196 13.5133 151.258 13.4491L153.149 13.3278V13.9558C153.149 14.9976 152.277 15.7398 151.124 15.7398ZM156.89 20C158.549 20 159.329 19.3578 160.011 17.4096L163 8.90343H161.27L159.266 15.4757H159.231L157.227 8.90343H155.448L158.331 17.0029L158.176 17.4952C157.916 18.3302 157.494 18.6513 156.742 18.6513C156.608 18.6513 156.348 18.637 156.243 18.6227V19.9572C156.341 19.9857 156.763 20 156.89 20Z" fill="black"/>
</g>
<path d="M189.561 12.3085V16.6964H188.189V5.86472H191.825C192.26 5.8556 192.693 5.93439 193.097 6.09638C193.5 6.25837 193.867 6.50021 194.176 6.80743C194.776 7.37766 195.128 8.16063 195.156 8.98787C195.185 9.81512 194.888 10.6205 194.329 11.2309L194.176 11.3817C193.537 11.9952 192.754 12.3063 191.825 12.3063L189.561 12.3085ZM189.561 7.19539V10.9785H191.859C192.112 10.9865 192.363 10.9405 192.597 10.8437C192.83 10.747 193.04 10.6016 193.213 10.4173C193.557 10.0524 193.744 9.56802 193.736 9.06703C193.728 8.56605 193.525 8.08791 193.171 7.73418C192.821 7.38949 192.35 7.19708 191.859 7.19901L189.561 7.19539Z" fill="#3C4043"/>
<path d="M198.324 9.04395C199.339 9.04395 200.136 9.32023 200.725 9.86482C201.313 10.4094 201.601 11.1701 201.601 12.128V16.6965H200.289V15.6682H200.23C199.659 16.5145 198.91 16.938 197.965 16.938C197.168 16.938 196.484 16.6958 195.947 16.2128C195.686 15.9901 195.477 15.7117 195.337 15.398C195.197 15.0843 195.129 14.7433 195.138 14.3999C195.138 13.6313 195.428 13.0265 195.998 12.5689C196.568 12.1114 197.335 11.8866 198.289 11.8866C199.106 11.8866 199.77 12.0417 200.298 12.3354V12.0149C200.298 11.7812 200.248 11.5502 200.151 11.3375C200.054 11.1249 199.913 10.9355 199.736 10.7821C199.374 10.456 198.904 10.2752 198.416 10.2745C197.65 10.2745 197.046 10.6028 196.603 11.2593L195.395 10.4906C196.041 9.52762 197.018 9.04395 198.324 9.04395ZM196.551 14.4275C196.55 14.6034 196.591 14.7771 196.669 14.9347C196.747 15.0922 196.862 15.2292 197.002 15.3347C197.304 15.5758 197.681 15.704 198.067 15.6973C198.354 15.697 198.638 15.6396 198.902 15.5284C199.167 15.4172 199.407 15.2545 199.608 15.0497C200.059 14.6146 200.289 14.107 200.289 13.5211C199.863 13.1759 199.267 13.0026 198.501 13.0134C197.947 13.0134 197.479 13.152 197.104 13.4195C196.729 13.6871 196.551 14.0185 196.551 14.4275Z" fill="#3C4043"/>
<path d="M209.128 9.28613L204.547 19.9532H203.133L204.837 16.2215L201.831 9.28613H203.321L205.492 14.6066H205.518L207.638 9.28613H209.128Z" fill="#3C4043"/>
<path d="M184.017 11.3582C184.018 10.9358 183.983 10.5141 183.915 10.0972H178.133V12.4902H181.445C181.379 12.8718 181.236 13.2359 181.025 13.561C180.814 13.8861 180.54 14.1653 180.219 14.3821V15.9369H182.194C183.353 14.8564 184.017 13.2581 184.017 11.3582Z" fill="#4285F4"/>
<path d="M178.133 17.4386C179.785 17.4386 181.179 16.8861 182.194 15.9354L180.218 14.3807C179.665 14.7606 178.958 14.9767 178.132 14.9767C176.531 14.9767 175.177 13.8796 174.692 12.4111H172.658V14.0174C173.161 15.0416 173.94 15.9048 174.907 16.5094C175.875 17.114 176.992 17.4358 178.133 17.4386Z" fill="#34A853"/>
<path d="M174.693 12.412C174.438 11.6378 174.438 10.8019 174.693 10.0277V8.43237H172.658C172.225 9.29879 172 10.254 172 11.2224C172 12.1909 172.225 13.146 172.658 14.0124L174.693 12.412Z" fill="#FBBC04"/>
<path d="M178.133 7.46583C178.567 7.45714 178.998 7.53485 179.402 7.69445C179.806 7.85405 180.174 8.09235 180.485 8.39548L182.239 6.61595C181.132 5.56429 179.659 4.98482 178.133 5.0003C176.991 5.00482 175.874 5.32838 174.906 5.93447C173.939 6.54056 173.16 7.40503 172.658 8.43029L174.693 10.0365C175.179 8.56009 176.532 7.46583 178.133 7.46583Z" fill="#EA4335"/>
</g>
<defs>
<linearGradient id="paint0_linear" x1="59.5722" y1="9.35401" x2="71.1353" y2="9.35401" gradientUnits="userSpaceOnUse">
<stop stop-color="#00B4E6"/>
<stop offset="1" stop-color="#088CCB"/>
</linearGradient>
<clipPath id="clip0">
<rect width="209" height="22" fill="white"/>
</clipPath>
<clipPath id="clip1">
<rect width="23.3439" height="17.8512" fill="white" transform="translate(0 4)"/>
</clipPath>
<clipPath id="clip2">
<rect width="39.1354" height="10.9854" fill="white" transform="translate(32 7)"/>
</clipPath>
<clipPath id="clip3">
<rect width="37.7622" height="12.2212" fill="white" transform="translate(80 7)"/>
</clipPath>
<clipPath id="clip4">
<rect width="36" height="15" fill="white" transform="translate(127 5)"/>
</clipPath>
</defs>
</svg>
