<svg width="272" height="48" viewBox="0 0 272 48" fill="none" xmlns="http://www.w3.org/2000/svg">
<g opacity="0.6">
<path d="M20.0163 18.0479L17.9834 29.9775H21.2346L23.2692 18.0479H20.0163Z" fill="#272727"/>
<path d="M15.2573 18.0616L12.0729 26.1972L11.7334 24.9688C11.1054 23.4887 9.32257 21.363 7.22949 20.0234L10.1412 29.972L13.5815 29.9661L18.7017 18.0591L15.2573 18.0616Z" fill="#272727"/>
<path d="M10.4991 18.9155C10.3102 18.1888 9.76243 17.9722 9.08258 17.9463H4.04181L4 18.1838C7.92274 19.1354 10.5184 21.4283 11.5954 24.1854L10.4991 18.9155Z" fill="#272727"/>
<path d="M29.859 20.3347C30.9227 20.318 31.6937 20.5505 32.2924 20.7913L32.5859 20.9293L33.0258 18.3437C32.3819 18.102 31.3726 17.8428 30.1132 17.8428C26.9004 17.8428 24.6359 19.4609 24.6184 21.7797C24.5975 23.4932 26.2314 24.4498 27.4657 25.0209C28.7326 25.6063 29.1574 25.9784 29.1515 26.5011C29.1415 27.2997 28.1414 27.6659 27.2073 27.6659C25.9053 27.6659 25.2138 27.4861 24.1459 27.0413L23.7269 26.8506L23.2695 29.5207C24.0305 29.8543 25.4345 30.1411 26.8921 30.1562C30.3097 30.1562 32.5307 28.5573 32.5541 26.0796C32.5684 24.7241 31.7012 23.6897 29.8222 22.8409C28.6849 22.2873 27.9892 21.9194 27.9959 21.3608C27.9959 20.8649 28.5863 20.3347 29.859 20.3347Z" fill="#272727"/>
<path d="M41.3691 18.0615H38.8571C38.0769 18.0615 37.4966 18.2739 37.1537 19.0516L32.3262 29.9844H35.7405C35.7405 29.9844 36.2974 28.5143 36.4237 28.1924C36.7975 28.1924 40.1148 28.1974 40.5872 28.1974C40.6842 28.6139 40.9836 29.9844 40.9836 29.9844H43.9999L41.3691 18.0615ZM37.3594 25.7506C37.627 25.0658 38.6547 22.4166 38.6547 22.4166C38.6372 22.4492 38.9198 21.7267 39.0879 21.2776L39.307 22.3062C39.307 22.3062 39.93 25.1544 40.0604 25.7506H37.3594Z" fill="#272727"/>
<path d="M85.1114 14.4761H74.0625V32.6835H85.1114V14.4761Z" fill="#848484"/>
<path d="M75.2006 23.5819C75.1992 21.8287 75.5931 20.0982 76.3525 18.5212C77.1119 16.9443 78.2169 15.5623 79.5838 14.4798C77.8908 13.1374 75.8576 12.3027 73.7166 12.0709C71.5757 11.8392 69.4133 12.2199 67.4766 13.1695C65.5399 14.1191 63.9071 15.5992 62.7648 17.4408C61.6224 19.2824 61.0166 21.411 61.0166 23.5835C61.0166 25.7561 61.6224 27.8847 62.7648 29.7263C63.9071 31.5679 65.5399 33.048 67.4766 33.9976C69.4133 34.9472 71.5757 35.3279 73.7166 35.0961C75.8576 34.8644 77.8908 34.0297 79.5838 32.6873C78.2164 31.6045 77.1112 30.2219 76.3518 28.6444C75.5924 27.0669 75.1987 25.3357 75.2006 23.5819Z" fill="#494949"/>
<path d="M98.1529 23.5816C98.1528 25.7543 97.5469 27.8831 96.4043 29.7247C95.2618 31.5664 93.6287 33.0465 91.6918 33.9959C89.7549 34.9454 87.5922 35.3258 85.4511 35.0938C83.3101 34.8617 81.2769 34.0266 79.584 32.6837C80.9504 31.6003 82.055 30.2179 82.8146 28.6409C83.5742 27.0639 83.9689 25.3334 83.9689 23.58C83.9689 21.8266 83.5742 20.0961 82.8146 18.5191C82.055 16.9421 80.9504 15.5597 79.584 14.4763C81.2769 13.1335 83.3101 12.2983 85.4511 12.0662C87.5922 11.8342 89.7549 12.2146 91.6918 13.1641C93.6287 14.1135 95.2618 15.5936 96.4043 17.4353C97.5469 19.2769 98.1528 21.4057 98.1529 23.5784V23.5816Z" fill="#AAAAAA"/>
<path d="M125.312 20.5567L123.901 25.4444H123.659L122.248 20.5567C122.007 19.7296 121.25 19.1602 120.384 19.1602H117V29.8002H120.388V23.5118H120.629L122.569 29.8002H124.991L126.927 23.5118H127.168V29.8002H130.556V19.1602H127.172C126.311 19.1602 125.553 19.7296 125.312 20.5567ZM144.07 29.8002H147.479V26.6539H150.909C152.703 26.6539 154.23 25.6398 154.821 24.2142H144.07V29.8002ZM138.031 20.2823L135.646 25.4486H135.405V19.1602H132.017V29.8002H134.893C135.65 29.8002 136.337 29.3596 136.653 28.678L139.038 23.5159H139.28V29.8002H142.668V19.1602H139.792C139.034 19.1602 138.348 19.6007 138.031 20.2823Z" fill="#454545"/>
<path d="M151.246 19.1602C152.224 19.1602 153.11 19.5342 153.78 20.1493C154.53 20.831 155 21.8119 155 22.905C155 23.1294 154.975 23.3497 154.938 23.5658H148.644C146.513 23.5658 144.707 22.1693 144.099 20.2408C144.091 20.22 144.087 20.1951 144.079 20.1701C144.062 20.1119 144.049 20.0496 144.033 19.9914C143.97 19.7213 143.929 19.4469 143.912 19.1602H151.246Z" fill="url(#paint0_linear)"/>
<path fill-rule="evenodd" clip-rule="evenodd" d="M205.275 24.0383C205.177 31.3003 199.262 37.1361 192 37.1361C184.737 37.1361 178.822 31.3003 178.725 24.0383C178.725 23.7448 178.737 23.4513 178.755 23.1638L186.792 27.7336L203.813 18.0551C204.776 19.9022 205.278 21.9551 205.275 24.0383ZM186.792 24.4036L179.312 20.1513C179.161 20.6242 179.041 21.1063 178.952 21.5947L186.792 26.0506L203.083 16.7913C202.815 16.3898 202.525 16.0039 202.214 15.6354L186.792 24.4036ZM201.208 14.5574C200.837 14.2071 200.447 13.8773 200.04 13.5692L186.792 21.1036L180.467 17.5041C180.228 17.9189 180.012 18.3468 179.821 18.7857L186.792 22.7506L201.208 14.5574ZM186.792 19.5344L198.699 12.7666C198.199 12.4766 197.681 12.2204 197.147 12L186.792 17.8814L182.18 15.2641C181.852 15.621 181.542 15.9949 181.252 16.3841L186.792 19.5344Z" fill="#6F6F6F"/>
<path fill-rule="evenodd" clip-rule="evenodd" d="M224 24.5606C224 20.1727 227.736 16.6157 232.347 16.6157H263.653C268.263 16.6157 272 20.1717 272 24.5606C272 28.9484 268.264 32.5054 263.653 32.5054H232.347C227.737 32.5054 224 28.9494 224 24.5606ZM237.668 28.4711L235.633 24.6483C237.32 24.153 238.495 22.9325 238.518 21.7236C238.541 20.699 237.808 19.9046 236.645 20.0082C235.575 20.1002 235.249 20.8139 235.331 20.8947C235.575 21.1251 236.261 22.714 235.063 23.4049L233.854 20.3534C233.854 20.3534 233.83 20.2842 233.772 20.2842H230.829C230.736 20.2842 230.759 20.365 230.759 20.365L232.644 24.0842C230.992 24.5562 229.701 25.7652 229.631 26.951C229.573 27.9642 230.306 28.7819 231.318 28.7819C232.388 28.7819 232.981 27.8378 232.888 27.6882C232.667 27.4578 232.05 26.2141 233.167 25.4312L234.423 28.4711C234.423 28.4711 234.435 28.5287 234.493 28.5287H237.634C237.704 28.5287 237.669 28.4711 237.669 28.4711H237.668ZM244.509 26.122C244.614 25.3276 245.021 22.7025 245.021 22.7025C245.021 22.6561 244.986 22.6449 244.986 22.6449H242.659C242.659 22.6449 242.59 22.6564 242.59 22.714C242.59 22.714 242.543 23.0249 242.485 23.5085C242.206 22.8637 241.694 22.4145 240.891 22.4145C239.367 22.4145 238.367 23.8194 238.169 25.3967C237.971 26.9394 238.588 28.6783 240.054 28.6783C240.868 28.6783 241.566 28.1255 242.054 27.3773C242.101 28.195 242.671 28.6899 243.473 28.6899C244.125 28.6899 244.811 28.2407 244.974 27.8722C245.125 27.5614 244.288 27.953 244.509 26.122ZM241.24 27.0897C240.67 27.0897 240.461 26.3988 240.565 25.5351C240.67 24.6718 241.054 23.9693 241.624 23.9693C242.194 23.9693 242.415 24.6718 242.31 25.5351C242.206 26.3988 241.81 27.0897 241.24 27.0897ZM252.489 22.7945C252.489 22.7601 252.466 22.7481 252.454 22.7481H252.466C250.651 22.38 249.011 22.4029 247.405 22.7481C247.394 22.7481 247.359 22.7601 247.359 22.8061C247.359 22.8061 247.138 24.6599 246.789 25.558C246.126 27.2158 245.405 27.2966 245.381 27.5154C245.346 27.757 245.637 28.7819 246.719 28.7819C247.661 28.7819 248.313 28.1831 248.662 26.8013C248.894 25.8916 249.034 24.8787 249.08 23.8078H250.023C249.813 25.5119 249.441 28.4711 249.441 28.4711C249.441 28.5287 249.487 28.5287 249.487 28.5287H251.733C251.733 28.5287 251.779 28.5287 251.779 28.4711C251.779 28.4711 252.454 23.0593 252.489 22.7945ZM255.548 24.0723L255.606 23.8422C260.353 23.3241 259.585 19.8582 257.235 19.9274C254.513 19.9966 253.012 23.3238 253.012 25.8344C253.012 27.4233 253.966 28.7359 255.723 28.7359C257.526 28.7359 259.015 27.4694 258.875 25.604C258.747 23.9687 256.874 23.6234 255.548 24.0726V24.0723ZM256.816 21.4359C257.107 21.4359 257.119 21.5971 257.107 21.7468C257.014 22.4489 255.862 22.9673 255.862 22.9673C255.978 22.5641 256.316 21.4359 256.816 21.4359ZM256.77 26.1565C256.758 26.4908 256.467 27.4346 255.862 27.4346C255.013 27.4346 255.269 25.604 255.362 25.0975C255.362 25.0975 255.734 24.9823 256.037 25.028C256.618 25.1319 256.805 25.5348 256.769 26.1568L256.77 26.1565ZM265.832 26.122C265.936 25.3276 266.343 22.7025 266.343 22.7025C266.343 22.6561 266.308 22.6449 266.308 22.6449H263.982C263.982 22.6449 263.912 22.6564 263.912 22.7137C263.912 22.7137 263.865 23.0249 263.807 23.5082C263.528 22.8637 263.016 22.4145 262.214 22.4145C260.69 22.4145 259.689 23.8194 259.492 25.3967C259.294 26.9394 259.91 28.6783 261.376 28.6783C262.19 28.6783 262.888 28.1255 263.377 27.3773C263.423 28.1946 263.993 28.6899 264.796 28.6899C265.448 28.6899 266.134 28.2407 266.297 27.8722C266.448 27.561 265.61 27.953 265.832 26.122ZM262.563 27.0893C261.992 27.0893 261.783 26.3985 261.888 25.5348C261.992 24.6714 262.376 23.969 262.947 23.969C263.517 23.969 263.738 24.6714 263.633 25.5348C263.528 26.3985 263.133 27.0893 262.563 27.0893Z" fill="#838383"/>
</g>
<defs>
<linearGradient id="paint0_linear" x1="155" y1="32.9388" x2="143.98" y2="32.9388" gradientUnits="userSpaceOnUse">
<stop stop-color="#5A5A5A"/>
<stop offset="1" stop-color="#828282"/>
</linearGradient>
</defs>
</svg>
