<svg width="24" height="24" viewBox="0 0 24 24" fill="none" xmlns="http://www.w3.org/2000/svg">
<path d="M2.00003 10.9722C1.9964 12.3654 2.3219 13.7398 2.95003 14.9833C3.69479 16.4735 4.83973 17.7269 6.2566 18.6031C7.67348 19.4794 9.30632 19.9438 10.9722 19.9444C12.3654 19.9481 13.7398 19.6226 14.9833 18.9944L21 21L18.9944 14.9833C19.6226 13.7398 19.9481 12.3654 19.9444 10.9722C19.9438 9.30632 19.4794 7.67348 18.6031 6.2566C17.7269 4.83973 16.4735 3.69479 14.9833 2.95003C13.7398 2.3219 12.3654 1.9964 10.9722 2.00003H10.4445C8.24432 2.12141 6.16626 3.05005 4.60816 4.60815C3.05005 6.16626 2.12141 8.24432 2.00003 10.4445V10.9722Z" stroke="#CCCCCC" stroke-width="1.5" stroke-linecap="round" stroke-linejoin="round"/>
<path d="M9 8.60286C9.188 8.06844 9.55907 7.61779 10.0475 7.33074C10.5359 7.04369 11.1102 6.93876 11.6685 7.03453C12.2269 7.13031 12.7334 7.42061 13.0982 7.85402C13.4631 8.28743 13.6628 8.83598 13.6619 9.40251C13.6619 11.0018 11.263 11.8014 11.263 11.8014" stroke="#EB6955" stroke-width="1.5" stroke-linecap="round" stroke-linejoin="round"/>
<path d="M11.3271 15H11.3341" stroke="#EB6955" stroke-width="1.5" stroke-linecap="round" stroke-linejoin="round"/>
</svg>
